# AST/ASF file generated using VICON BodyLanguage
# -----------------------------------------------
:version 1.10
:name VICON
:units
  mass 1.0
  length 0.45
  angle deg
:documentation
   .ast/.asf automatically generated from VICON data using
   VICON BodyBuilder and BodyLanguage model FoxedUp or BRILLIANT.MOD
:root
   order TX TY TZ RX RY RZ
   axis XYZ
   position 0 0 0  
   orientation 0 0 0 
:bonedata
  begin
     id 1 
     name lhipjoint
     direction 0.78388 -0.462562 0.414208 
     length 3.01181 
     axis 0 0 0  XYZ
  end
  begin
     id 2 
     name lfemur
     direction 0.34202 -0.939693 0  
     length 6.04673  
     axis 0 0 20  XYZ
    dof rx ry rz
    limits (-160.0 20.0)
           (-70.0 70.0)
           (-60.0 70.0)
  end
  begin
     id 3 
     name ltibia
     direction 0.34202 -0.939693 0   
     length 7.211   
     axis 0 0 20   XYZ
    dof rx
    limits (-10.0 170.0)
  end
  begin
     id 4 
     name lfoot
     direction 0.121887 -0.334882 0.934344   
     length 2.13567   
     axis -90 7.62852e-016 20   XYZ
    dof rx rz
    limits (-45.0 90.0)
           (-70.0 20.0)
  end
  begin
     id 5 
     name ltoes
     direction 1.53555e-011 -4.2179e-011 1   
     length 1.05957   
     axis -90 7.62852e-016 20   XYZ
    dof rx
    limits (-90.0 20.0)
  end
  begin
     id 6 
     name rhipjoint
     direction -0.769387 -0.475875 0.426129   
     length 2.92756  
     axis 0 0 0  XYZ 
  end
  begin
     id 7 
     name rfemur
     direction -0.34202 -0.939693 0   
     length 6.35468   
     axis 0 0 -20   XYZ
    dof rx ry rz
    limits (-160.0 20.0)
           (-70.0 70.0)
           (-70.0 60.0)
  end
  begin
     id 8 
     name rtibia
     direction -0.34202 -0.939693 0   
     length 7.37886   
     axis 0 0 -20   XYZ
    dof rx
    limits (-10.0 170.0)
 end
 begin
     id 9 
     name rfoot
     direction -0.101763 -0.279592 0.954711   
     length 2.21478  
     axis -90 -7.62852e-016 -20   XYZ
    dof rx rz
    limits (-45.0 90.0)
           (-20.0 70.0)
  end
  begin
     id 10 
     name rtoes
     direction -1.53494e-011 -4.21851e-011 1   
     length 1.10506   
     axis -90 -7.62852e-016 -20   XYZ
    dof rx
    limits (-90.0 20.0)
  end
  begin
     id 11 
     name lowerback
     direction 0.00747405 0.999267 0.0375481   
     length 2.13259   
     axis 0 0 0   XYZ
    dof rx ry rz
    limits (-20.0 45.0)
           (-30.0 30.0)
           (-30.0 30.0)
  end
  begin
     id 12 
     name upperback
     direction 0.00661626 0.996177 0.0871029   
     length 2.10528   
     axis 0 0 0   XYZ
    dof rx ry rz
    limits (-20.0 45.0)
           (-30.0 30.0)
           (-30.0 30.0)
  end
  begin
     id 13 
     name thorax
     direction 0.00320659 0.997679 0.0680167   
     length 2.11338   
     axis 0 0 0   XYZ
    dof rx ry rz
    limits (-20.0 45.0)
           (-30.0 30.0)
           (-30.0 30.0)
  end
  begin
     id 14 
     name lowerneck
     direction 0.0374841 0.973033 0.227602   
     length 1.42765   
     axis 0 0 0   XYZ
    dof rx ry rz
    limits (-20.0 45.0)
           (-30.0 30.0)
           (-30.0 30.0)
  end
  begin
     id 15 
     name upperneck
     direction 0.00481585 0.989155 -0.146795   
     length 1.47593   
     axis 0 0 0   XYZ
    dof rx ry rz
    limits (-20.0 45.0)
           (-30.0 30.0)
           (-30.0 30.0)
  end
  begin
     id 16
     name head
     direction -0.00292522 0.997206 -0.0746423  
     length 1.48116  
     axis 0 0 0   XYZ
    dof rx ry rz
    limits (-20.0 45.0)
           (-30.0 30.0)
           (-30.0 30.0)
  end
  begin
     id 17 
     name lclavicle
     direction 0.951444 0.305606 0.0368784  
     length 3.01855  
     axis 0 0 0   XYZ
    dof ry rz
    limits (-20.0 10.0)
           (0.0 20.0)
  end
  begin
     id 18 
     name lhumerus
     direction 1 -4.48977e-011 2.61664e-027   
     length 5.52731   
     axis 180 -30 -90   XYZ
    dof rx ry rz
    limits (-60.0 90.0)
           (-90.0 90.0)
           (-90.0 90.0)
  end
  begin
     id 19
     name lradius
     direction 1 -4.48944e-011 8.22157e-027   
     length 3.11059   
     axis 180 -30 -90   XYZ
    dof rx
    limits (-10.0 170.0)
  end
  begin
     id 20
     name lwrist
     direction 1 -4.48976e-011 1.5779e-026   
     length 1.5553   
     axis -1.15221e-014 90 90   XYZ
    dof ry
    limits (-180.0 0.0)
 end
  begin
     id 21 
     name lhand
     direction 1 -4.49025e-011 3.1558e-026   
     length 0.419626   
     axis -2.01367e-014 90 90   XYZ
    dof rx rz
    limits (-90.0 90.0)
           (-45.0 45.0)
  end
  begin
     id 22 
     name lfingers
     direction 1 -4.4904e-011 6.31161e-026   
     length 0.338313   
     axis -4.02734e-014 90 90   XYZ
    dof rx
    limits (0.0 90.0)
  end
  begin
     id 23
     name lthumb
     direction 0.707107 -6.35004e-011 0.707107   
     length 0.485752   
     axis -90 45 2.85299e-015   XYZ
    dof rx rz
    limits (-45.0 45.0)
           (-45.0 45.0)
  end
  begin
     id 24 
     name rclavicle
     direction -0.968876 0.223791 0.105816   
     length 3.04177  
     axis 0 0 0   XYZ 
    dof ry rz
    limits (-10.0 20.0)
           (-20.0 0.0)
  end
  begin
     id 25 
     name rhumerus
     direction -1 -4.48962e-011 -1.01384e-027  
     length 5.25396   
     axis 180 30 90   XYZ
    dof rx ry rz
    limits (-90.0 60.0)
           (-90.0 90.0)
           (-90.0 90.0)
  end
  begin
     id 26 
     name rradius
     direction -1 -4.48955e-011 8.88542e-027   
     length 3.10567   
     axis 180 30 90   XYZ
    dof rx
    limits (-10.0 170.0)
  end
  begin
     id 27 
     name rwrist
     direction -1 -4.48994e-011 1.5779e-026   
     length 1.55283   
     axis -1.15221e-014 -90 -90   XYZ
    dof ry
    limits (-180.0 0.0)
  end
  begin
     id 28
     name rhand
     direction -1 -4.48891e-011 3.1558e-026   
     length 0.498676   
     axis -2.01367e-014 -90 -90   XYZ
    dof rx rz
    limits (-90.0 90.0)
           (-45.0 45.0)
  end
  begin
     id 29
     name rfingers
     direction -1 -4.48972e-011 6.31161e-026   
     length 0.402045   
     axis -4.02734e-014 -90 -90   XYZ
    dof rx
    limits (0.0 90.0)
  end
  begin
     id 30
     name rthumb
     direction -0.707107 -6.34849e-011 0.707107   
     length 0.577259   
     axis -90 -45 -2.85299e-015   XYZ
    dof rx rz
    limits (-45.0 45.0)
           (-45.0 45.0)
  end
:hierarchy
  begin
    root lhipjoint rhipjoint lowerback
    lhipjoint lfemur
    lfemur ltibia
    ltibia lfoot
    lfoot ltoes
    rhipjoint rfemur
    rfemur rtibia
    rtibia rfoot
    rfoot rtoes
    lowerback upperback
    upperback thorax
    thorax lowerneck lclavicle rclavicle
    lowerneck upperneck
    upperneck head
    lclavicle lhumerus
    lhumerus lradius
    lradius lwrist
    lwrist lhand lthumb
    lhand lfingers
    rclavicle rhumerus
    rhumerus rradius
    rradius rwrist
    rwrist rhand rthumb
    rhand rfingers
  end

#!OML:ASF H:\Pregnant\Project 1\Capture day 1\Session 1\femalepreg.ASF
:FULLY-SPECIFIED
:DEGREES
1
root 20.484 15.1996 16.3946 27.7086 -55.3916 -7.50306
lowerback -15.6131 -0.846739 -0.0126773
upperback -6.2701 -1.34955 0.909222
thorax 2.12707 -0.750408 0.725383
lowerneck -16.7778 -3.16576 -1.13095
upperneck 18.4046 -4.81925 3.11758
head 8.61718 -2.04838 0.641604
rclavicle 5.03049e-014 -9.93923e-015
rhumerus -41.5512 0.497157 -78.0466
rradius 29.906
rwrist -3.53034
rhand -14.9837 -12.4872
rfingers 7.12502
rthumb 11.1804 -42.1693
lclavicle 5.03049e-014 -9.93923e-015
lhumerus -35.5037 -6.44886 85.248
lradius 26.6889
lwrist 36.6626
lhand -30.8938 -6.2697
lfingers 7.12502
lthumb -4.18057 23.669
rfemur -41.8026 12.2305 26.362
rtibia 42.4593
rfoot -17.0582 -16.8901
rtoes 0.776458
lfemur -44.6609 0.898399 -25.118
ltibia 56.8936
lfoot -11.6683 4.82286
ltoes -29.9994
2
root 20.4857 15.1998 16.4334 27.7815 -56.1011 -7.76232
lowerback -15.4295 -0.900546 0.156697
upperback -6.27939 -1.45493 1.15587
thorax 2.02397 -0.803764 0.873208
lowerneck -16.6917 -2.8166 -1.05736
upperneck 18.353 -4.30644 2.90005
head 8.56501 -1.82629 0.621605
rclavicle 4.11609e-014 2.82274e-014
rhumerus -41.2184 0.440613 -77.6178
rradius 29.5719
rwrist -3.8811
rhand -15.8556 -13.2526
rfingers 7.12502
rthumb 10.3395 -42.9784
lclavicle 4.11609e-014 2.82274e-014
lhumerus -35.8272 -5.78866 85.4704
lradius 27.1524
lwrist 38.0445
lhand -32.5121 -6.46742
lfingers 7.12502
lthumb -5.74313 23.4348
rfemur -41.5045 12.4068 26.282
rtibia 42.2981
rfoot -17.6265 -16.333
rtoes 3.33334
lfemur -45.6034 0.785459 -24.8236
ltibia 58.6439
lfoot -10.2159 3.71093
ltoes -30.2833
3
root 20.4869 15.2021 16.474 27.9168 -56.7641 -8.06389
lowerback -15.2661 -0.902285 0.313482
upperback -6.28325 -1.48952 1.42352
thorax 1.93715 -0.821447 1.06181
lowerneck -16.7032 -2.54537 -1.01584
upperneck 18.362 -3.88412 2.63341
head 8.55386 -1.65196 0.577174
rclavicle -8.45332e-014 1.03368e-014
rhumerus -40.9075 0.0910407 -76.9477
rradius 29.2861
rwrist -3.87272
rhand -16.4998 -13.7561
rfingers 7.12502
rthumb 9.71794 -43.5119
lclavicle -8.45332e-014 1.03368e-014
lhumerus -35.9088 -4.50492 85.3338
lradius 27.0567
lwrist 37.1066
lhand -31.3268 -6.0486
lfingers 7.12502
lthumb -4.59874 23.8815
rfemur -41.2051 12.5997 26.2164
rtibia 42.0991
rfoot -17.6518 -16.0009
rtoes 3.29146
lfemur -46.5917 0.542467 -24.3855
ltibia 60.2854
lfoot -8.69419 2.34105
ltoes -30.0746
4
root 20.4897 15.2033 16.5165 28.2283 -57.413 -8.53427
lowerback -15.1626 -0.832564 0.768569
upperback -6.26448 -1.46388 1.47631
thorax 1.8923 -0.815388 0.865952
lowerneck -16.7759 -2.27513 -0.668491
upperneck 18.4487 -3.56514 2.44621
head 8.57985 -1.49582 0.495239
rclavicle 7.40908e-014 1.31198e-014
rhumerus -40.6419 -0.64296 -76.5771
rradius 29.1003
rwrist -4.02207
rhand -17.226 -14.248
rfingers 7.12502
rthumb 9.0173 -44.0353
lclavicle 7.40908e-014 1.31198e-014
lhumerus -36.1157 -4.40634 85.4561
lradius 27.4263
lwrist 38.2289
lhand -32.0044 -6.19728
lfingers 7.12502
lthumb -5.25296 23.7176
rfemur -40.9497 12.8118 26.2168
rtibia 41.9127
rfoot -17.4812 -15.6794
rtoes 2.31098
lfemur -47.6115 0.0364144 -23.6566
ltibia 61.8291
lfoot -7.45139 0.817464
ltoes -28.5083
5
root 20.4917 15.2011 16.5591 28.5147 -58.0845 -8.99351
lowerback -15.0172 -0.796024 1.10943
upperback -6.25641 -1.46759 1.61932
thorax 1.81908 -0.821845 0.824971
lowerneck -16.8153 -1.99304 -0.428296
upperneck 18.5229 -3.19498 2.23074
head 8.59787 -1.32652 0.428083
rclavicle -1.65799e-014 3.18055e-015
rhumerus -40.3772 -1.19394 -76.1357
rradius 28.9347
rwrist -4.19262
rhand -17.9624 -14.752
rfingers 7.12502
rthumb 8.30662 -44.5687
lclavicle -1.65799e-014 3.18055e-015
lhumerus -36.3104 -3.94902 85.5377
lradius 27.6772
lwrist 38.7938
lhand -32.2184 -6.18875
lfingers 7.12502
lthumb -5.45964 23.7209
rfemur -40.6853 13.0318 26.2007
rtibia 41.7355
rfoot -17.4293 -15.3285
rtoes 1.88369
lfemur -48.5582 -0.315145 -22.9993
ltibia 63.2876
lfoot -6.24761 -0.783633
ltoes -26.9125
6
root 20.4931 15.1982 16.6033 28.8677 -58.7725 -9.51987
lowerback -14.8809 -0.746546 1.47296
upperback -6.24478 -1.45595 1.74675
thorax 1.75319 -0.821336 0.757213
lowerneck -16.8771 -1.715 -0.150163
upperneck 18.6342 -2.84303 2.01945
head 8.63419 -1.16236 0.353468
rclavicle -5.22742e-014 -1.5704e-014
rhumerus -40.1398 -1.76455 -75.7408
rradius 28.8428
rwrist -4.42219
rhand -18.6764 -15.2303
rfingers 7.12502
rthumb 7.61747 -45.0731
lclavicle -5.22742e-014 -1.5704e-014
lhumerus -36.5011 -3.59846 85.63
lradius 27.9198
lwrist 39.3382
lhand -32.3268 -6.1914
lfingers 7.12502
lthumb -5.56424 23.7155
rfemur -40.4306 13.2892 26.1896
rtibia 41.5634
rfoot -17.3303 -14.9973
rtoes 1.20237
lfemur -49.4556 -0.713009 -22.2461
ltibia 64.6027
lfoot -5.25568 -2.45785
ltoes -24.8845
7
root 20.4937 15.1954 16.6489 29.287 -59.4935 -10.1063
lowerback -14.7713 -0.68393 1.85412
upperback -6.2227 -1.42851 1.85311
thorax 1.7113 -0.813397 0.659462
lowerneck -16.9604 -1.43973 0.152892
upperneck 18.7745 -2.50727 1.82786
head 8.68639 -1.00176 0.279184
rclavicle 1.05698e-014 1.05356e-014
rhumerus -39.9145 -2.32722 -75.4177
rradius 28.8198
rwrist -4.74101
rhand -19.3792 -15.7007
rfingers 7.12502
rthumb 6.93911 -45.5669
lclavicle 1.05698e-014 1.05356e-014
lhumerus -36.682 -3.37598 85.7412
lradius 28.1651
lwrist 39.919
lhand -32.4202 -6.21455
lfingers 7.12502
lthumb -5.65448 23.69
rfemur -40.1911 13.5994 26.1683
rtibia 41.3982
rfoot -17.2904 -14.6561
rtoes 0.825843
lfemur -50.2896 -1.14171 -21.4133
ltibia 65.761
lfoot -4.56148 -4.1117
ltoes -22.7681
8
root 20.4931 15.1933 16.6962 29.7565 -60.2607 -10.7278
lowerback -14.6913 -0.610061 2.21867
upperback -6.19302 -1.38396 1.94528
thorax 1.69336 -0.796713 0.558374
lowerneck -17.0622 -1.17121 0.463819
upperneck 18.9404 -2.18854 1.65529
head 8.7529 -0.846413 0.207866
rclavicle -8.64713e-015 9.93923e-016
rhumerus -39.7079 -2.80277 -75.179
rradius 28.8851
rwrist -5.22564
rhand -20.0918 -16.2106
rfingers 7.12502
rthumb 6.25117 -46.0983
lclavicle -8.64713e-015 9.93923e-016
lhumerus -36.845 -3.23961 85.8652
lradius 28.3816
lwrist 40.4191
lhand -32.3914 -6.2252
lfingers 7.12502
lthumb -5.62659 23.6801
rfemur -39.9656 13.962 26.1165
rtibia 41.2241
rfoot -17.3016 -14.3008
rtoes 0.775612
lfemur -51.038 -1.60106 -20.5214
ltibia 66.724
lfoot -4.17866 -5.63723
ltoes -20.8998
9
root 20.4915 15.1928 16.7452 30.2701 -61.0825 -11.3705
lowerback -14.641 -0.539233 2.54357
upperback -6.15674 -1.339 2.03315
thorax 1.69912 -0.779091 0.474658
lowerneck -17.1885 -0.897345 0.788727
upperneck 19.1311 -1.86913 1.4892
head 8.83417 -0.688827 0.136552
rclavicle 2.30435e-014 -6.26172e-015
rhumerus -39.4979 -3.16184 -75.0295
rradius 29.0162
rwrist -5.83384
rhand -20.7972 -16.7258
rfingers 7.12502
rthumb 5.57016 -46.6326
lclavicle 2.30435e-014 -6.26172e-015
lhumerus -36.9868 -3.14578 85.9939
lradius 28.5544
lwrist 40.8005
lhand -32.2305 -6.22538
lfingers 7.12502
lthumb -5.4713 23.684
rfemur -39.7613 14.3788 26.0197
rtibia 41.0412
rfoot -17.3084 -13.9439
rtoes 0.773338
lfemur -51.6929 -2.09147 -19.5822
ltibia 67.4744
lfoot -4.08566 -6.94448
ltoes -19.5041
10
root 20.489 15.1942 16.7964 30.7991 -61.9734 -12.0038
lowerback -14.6142 -0.465957 2.80871
upperback -6.11726 -1.28365 2.11346
thorax 1.72246 -0.75529 0.417927
lowerneck -17.3306 -0.626869 1.1096
upperneck 19.3423 -1.55732 1.3344
head 8.92752 -0.533793 0.0689924
rclavicle -1.18432e-014 1.46107e-014
rhumerus -39.2861 -3.4121 -74.9439
rradius 29.1998
rwrist -6.56004
rhand -21.4881 -17.2239
rfingers 7.12502
rthumb 4.90305 -47.1472
lclavicle -1.18432e-014 1.46107e-014
lhumerus -37.1129 -3.12489 86.1577
lradius 28.6917
lwrist 41.1172
lhand -32.0164 -6.22626
lfingers 7.12502
lthumb -5.26452 23.6883
rfemur -39.5783 14.8399 25.8575
rtibia 40.85
rfoot -17.3113 -13.5764
rtoes 0.813162
lfemur -52.2368 -2.61717 -18.6185
ltibia 67.996
lfoot -4.23014 -7.96029
ltoes -18.6246
11
root 20.4857 15.1979 16.8497 31.321 -62.9414 -12.6014
lowerback -14.5986 -0.40302 2.97582
upperback -6.08463 -1.23004 2.20577
thorax 1.7473 -0.731026 0.428569
lowerneck -17.4734 -0.354695 1.41068
upperneck 19.5724 -1.23764 1.17399
head 9.0295 -0.377243 0.00413793
rclavicle 5.54765e-014 7.7526e-015
rhumerus -39.0692 -3.52991 -74.892
rradius 29.4194
rwrist -7.35093
rhand -22.1242 -17.6711
rfingers 7.12502
rthumb 4.28888 -47.6076
lclavicle 5.54765e-014 7.7526e-015
lhumerus -37.236 -3.12762 86.3725
lradius 28.7842
lwrist 41.3404
lhand -31.743 -6.19289
lfingers 7.12502
lthumb -5.0006 23.7281
rfemur -39.4209 15.3403 25.6136
rtibia 40.6521
rfoot -17.2532 -13.2141
rtoes 0.562564
lfemur -52.6646 -3.18727 -17.6424
ltibia 68.2829
lfoot -4.54051 -8.66584
ltoes -18.1203
12
root 20.4807 15.2045 16.9048 31.8243 -64.0071 -13.1729
lowerback -14.5868 -0.34346 3.03585
upperback -6.05074 -1.16726 2.30842
thorax 1.77836 -0.700539 0.511653
lowerneck -17.6053 -0.0866352 1.68143
upperneck 19.8111 -0.915546 1.01306
head 9.13449 -0.222212 -0.0551423
rclavicle -2.36057e-014 -4.39811e-014
rhumerus -38.8468 -3.53137 -74.8594
rradius 29.6622
rwrist -8.17661
rhand -22.6924 -18.0414
rfingers 7.12502
rthumb 3.74015 -47.9884
lclavicle -2.36057e-014 -4.39811e-014
lhumerus -37.349 -3.15505 86.6364
lradius 28.8208
lwrist 41.4518
lhand -31.4486 -6.16037
lfingers 7.12502
lthumb -4.71635 23.7671
rfemur -39.2643 15.8944 25.2888
rtibia 40.4489
rfoot -17.1426 -12.8534
rtoes 0.021186
lfemur -52.9381 -3.79162 -16.6604
ltibia 68.3313
lfoot -4.98362 -9.061
ltoes -17.8673
